<mxfile host="app.diagrams.net" modified="2023-05-25T17:26:50.017Z" agent="Mozilla/5.0 (Macintosh; Intel Mac OS X 10_15_7) AppleWebKit/537.36 (KHTML, like Gecko) Chrome/112.0.0.0 Safari/537.36" etag="aTmEIuoGtD6RIJnusQF4" version="21.1.8" type="github">
  <diagram id="C5RBs43oDa-KdzZeNtuy" name="Page-1">
    <mxGraphModel dx="1002" dy="640" grid="1" gridSize="10" guides="1" tooltips="1" connect="1" arrows="1" fold="1" page="1" pageScale="1" pageWidth="827" pageHeight="1169" math="0" shadow="0">
      <root>
        <mxCell id="WIyWlLk6GJQsqaUBKTNV-0" />
        <mxCell id="WIyWlLk6GJQsqaUBKTNV-1" parent="WIyWlLk6GJQsqaUBKTNV-0" />
        <mxCell id="WIyWlLk6GJQsqaUBKTNV-2" value="" style="rounded=0;html=1;jettySize=auto;orthogonalLoop=1;fontSize=11;endArrow=block;endFill=0;endSize=8;strokeWidth=1;shadow=0;labelBackgroundColor=none;edgeStyle=orthogonalEdgeStyle;exitX=0.5;exitY=1;exitDx=0;exitDy=0;" parent="WIyWlLk6GJQsqaUBKTNV-1" source="L2Q9ZGXkg7ZCrjdloAhY-37" edge="1">
          <mxGeometry relative="1" as="geometry">
            <mxPoint x="100" y="75" as="sourcePoint" />
            <mxPoint x="100" y="130" as="targetPoint" />
          </mxGeometry>
        </mxCell>
        <mxCell id="L2Q9ZGXkg7ZCrjdloAhY-2" value="" style="edgeStyle=orthogonalEdgeStyle;rounded=0;orthogonalLoop=1;jettySize=auto;html=1;endArrow=block;endFill=0;endSize=8;" edge="1" parent="WIyWlLk6GJQsqaUBKTNV-1" source="WIyWlLk6GJQsqaUBKTNV-7" target="L2Q9ZGXkg7ZCrjdloAhY-1">
          <mxGeometry relative="1" as="geometry" />
        </mxCell>
        <mxCell id="WIyWlLk6GJQsqaUBKTNV-7" value="Trimmomatic&lt;br&gt;Quality Filter" style="rounded=1;whiteSpace=wrap;html=1;fontSize=12;glass=0;strokeWidth=1;shadow=0;" parent="WIyWlLk6GJQsqaUBKTNV-1" vertex="1">
          <mxGeometry x="40" y="130" width="120" height="40" as="geometry" />
        </mxCell>
        <mxCell id="WIyWlLk6GJQsqaUBKTNV-11" value="gProfiler" style="rounded=1;whiteSpace=wrap;html=1;fontSize=12;glass=0;strokeWidth=1;shadow=0;" parent="WIyWlLk6GJQsqaUBKTNV-1" vertex="1">
          <mxGeometry x="450" y="469" width="120" height="40" as="geometry" />
        </mxCell>
        <mxCell id="WIyWlLk6GJQsqaUBKTNV-12" value="STAR&lt;br&gt;Alignment to Reference" style="rounded=1;whiteSpace=wrap;html=1;fontSize=12;glass=0;strokeWidth=1;shadow=0;" parent="WIyWlLk6GJQsqaUBKTNV-1" vertex="1">
          <mxGeometry x="185" y="249" width="150" height="40" as="geometry" />
        </mxCell>
        <mxCell id="L2Q9ZGXkg7ZCrjdloAhY-3" value="" style="edgeStyle=orthogonalEdgeStyle;rounded=0;orthogonalLoop=1;jettySize=auto;html=1;endArrow=block;endFill=0;endSize=8;" edge="1" parent="WIyWlLk6GJQsqaUBKTNV-1" source="L2Q9ZGXkg7ZCrjdloAhY-1" target="WIyWlLk6GJQsqaUBKTNV-12">
          <mxGeometry relative="1" as="geometry" />
        </mxCell>
        <mxCell id="L2Q9ZGXkg7ZCrjdloAhY-1" value="FastQC/MultiQC&lt;br&gt;Quality Check" style="whiteSpace=wrap;html=1;rounded=1;glass=0;strokeWidth=1;shadow=0;" vertex="1" parent="WIyWlLk6GJQsqaUBKTNV-1">
          <mxGeometry x="200" y="130" width="120" height="40" as="geometry" />
        </mxCell>
        <mxCell id="L2Q9ZGXkg7ZCrjdloAhY-7" value="High-quality fastq files" style="text;html=1;strokeColor=none;fillColor=none;align=center;verticalAlign=middle;whiteSpace=wrap;rounded=0;" vertex="1" parent="WIyWlLk6GJQsqaUBKTNV-1">
          <mxGeometry x="35" y="187" width="130" height="30" as="geometry" />
        </mxCell>
        <mxCell id="L2Q9ZGXkg7ZCrjdloAhY-8" value="" style="endArrow=classic;html=1;rounded=0;exitX=0.5;exitY=1;exitDx=0;exitDy=0;entryX=0.5;entryY=0;entryDx=0;entryDy=0;" edge="1" parent="WIyWlLk6GJQsqaUBKTNV-1" source="WIyWlLk6GJQsqaUBKTNV-7" target="L2Q9ZGXkg7ZCrjdloAhY-7">
          <mxGeometry width="50" height="50" relative="1" as="geometry">
            <mxPoint x="390" y="330" as="sourcePoint" />
            <mxPoint x="440" y="280" as="targetPoint" />
          </mxGeometry>
        </mxCell>
        <mxCell id="L2Q9ZGXkg7ZCrjdloAhY-9" value="fastqc htmls&lt;br&gt;multiqc quality summary" style="text;html=1;strokeColor=none;fillColor=none;align=left;verticalAlign=middle;whiteSpace=wrap;rounded=0;" vertex="1" parent="WIyWlLk6GJQsqaUBKTNV-1">
          <mxGeometry x="337" y="135" width="140" height="30" as="geometry" />
        </mxCell>
        <mxCell id="L2Q9ZGXkg7ZCrjdloAhY-10" value="" style="endArrow=classic;html=1;rounded=0;exitX=1;exitY=0.5;exitDx=0;exitDy=0;entryX=0;entryY=0.5;entryDx=0;entryDy=0;" edge="1" parent="WIyWlLk6GJQsqaUBKTNV-1" source="L2Q9ZGXkg7ZCrjdloAhY-1" target="L2Q9ZGXkg7ZCrjdloAhY-9">
          <mxGeometry width="50" height="50" relative="1" as="geometry">
            <mxPoint x="390" y="290" as="sourcePoint" />
            <mxPoint x="440" y="240" as="targetPoint" />
          </mxGeometry>
        </mxCell>
        <mxCell id="L2Q9ZGXkg7ZCrjdloAhY-11" value="" style="edgeStyle=orthogonalEdgeStyle;rounded=0;orthogonalLoop=1;jettySize=auto;html=1;endArrow=block;endFill=0;endSize=8;exitX=1;exitY=0.5;exitDx=0;exitDy=0;entryX=0;entryY=0.5;entryDx=0;entryDy=0;" edge="1" parent="WIyWlLk6GJQsqaUBKTNV-1" source="WIyWlLk6GJQsqaUBKTNV-12" target="L2Q9ZGXkg7ZCrjdloAhY-12">
          <mxGeometry relative="1" as="geometry">
            <mxPoint x="170" y="189" as="sourcePoint" />
            <mxPoint x="380" y="269" as="targetPoint" />
          </mxGeometry>
        </mxCell>
        <mxCell id="L2Q9ZGXkg7ZCrjdloAhY-20" value="" style="edgeStyle=orthogonalEdgeStyle;rounded=0;orthogonalLoop=1;jettySize=auto;html=1;endSize=8;endArrow=block;endFill=0;" edge="1" parent="WIyWlLk6GJQsqaUBKTNV-1" source="L2Q9ZGXkg7ZCrjdloAhY-12" target="L2Q9ZGXkg7ZCrjdloAhY-17">
          <mxGeometry relative="1" as="geometry" />
        </mxCell>
        <mxCell id="L2Q9ZGXkg7ZCrjdloAhY-12" value="Stringtie&lt;br&gt;Gene Counting" style="whiteSpace=wrap;html=1;rounded=1;glass=0;strokeWidth=1;shadow=0;" vertex="1" parent="WIyWlLk6GJQsqaUBKTNV-1">
          <mxGeometry x="380" y="249" width="120" height="40" as="geometry" />
        </mxCell>
        <mxCell id="L2Q9ZGXkg7ZCrjdloAhY-13" value="bam/sam alignment files" style="text;html=1;strokeColor=none;fillColor=none;align=center;verticalAlign=middle;whiteSpace=wrap;rounded=0;" vertex="1" parent="WIyWlLk6GJQsqaUBKTNV-1">
          <mxGeometry x="193" y="306" width="135" height="30" as="geometry" />
        </mxCell>
        <mxCell id="L2Q9ZGXkg7ZCrjdloAhY-14" value="" style="endArrow=classic;html=1;rounded=0;entryX=0.5;entryY=0;entryDx=0;entryDy=0;" edge="1" parent="WIyWlLk6GJQsqaUBKTNV-1" target="L2Q9ZGXkg7ZCrjdloAhY-13">
          <mxGeometry width="50" height="50" relative="1" as="geometry">
            <mxPoint x="260" y="289" as="sourcePoint" />
            <mxPoint x="600" y="399" as="targetPoint" />
          </mxGeometry>
        </mxCell>
        <mxCell id="L2Q9ZGXkg7ZCrjdloAhY-15" value="gene abundance tables&lt;br&gt;unified gene count matrix" style="text;html=1;strokeColor=none;fillColor=none;align=left;verticalAlign=middle;whiteSpace=wrap;rounded=0;" vertex="1" parent="WIyWlLk6GJQsqaUBKTNV-1">
          <mxGeometry x="517" y="254" width="140" height="30" as="geometry" />
        </mxCell>
        <mxCell id="L2Q9ZGXkg7ZCrjdloAhY-16" value="" style="endArrow=classic;html=1;rounded=0;entryX=0;entryY=0.5;entryDx=0;entryDy=0;exitX=1;exitY=0.5;exitDx=0;exitDy=0;" edge="1" parent="WIyWlLk6GJQsqaUBKTNV-1" target="L2Q9ZGXkg7ZCrjdloAhY-15" source="L2Q9ZGXkg7ZCrjdloAhY-12">
          <mxGeometry width="50" height="50" relative="1" as="geometry">
            <mxPoint x="510" y="299" as="sourcePoint" />
            <mxPoint x="620" y="359" as="targetPoint" />
          </mxGeometry>
        </mxCell>
        <mxCell id="L2Q9ZGXkg7ZCrjdloAhY-17" value="edgeR" style="whiteSpace=wrap;html=1;rounded=1;glass=0;strokeWidth=1;shadow=0;" vertex="1" parent="WIyWlLk6GJQsqaUBKTNV-1">
          <mxGeometry x="380" y="336" width="120" height="40" as="geometry" />
        </mxCell>
        <mxCell id="L2Q9ZGXkg7ZCrjdloAhY-18" value="NoiSeq/NoiSeqBio" style="whiteSpace=wrap;html=1;rounded=1;glass=0;strokeWidth=1;shadow=0;" vertex="1" parent="WIyWlLk6GJQsqaUBKTNV-1">
          <mxGeometry x="517" y="336" width="120" height="40" as="geometry" />
        </mxCell>
        <mxCell id="L2Q9ZGXkg7ZCrjdloAhY-19" value="DESeq2" style="whiteSpace=wrap;html=1;rounded=1;glass=0;strokeWidth=1;shadow=0;" vertex="1" parent="WIyWlLk6GJQsqaUBKTNV-1">
          <mxGeometry x="650" y="336" width="120" height="40" as="geometry" />
        </mxCell>
        <mxCell id="L2Q9ZGXkg7ZCrjdloAhY-21" value="" style="edgeStyle=orthogonalEdgeStyle;rounded=0;orthogonalLoop=1;jettySize=auto;html=1;exitX=0.5;exitY=1;exitDx=0;exitDy=0;entryX=0.5;entryY=0;entryDx=0;entryDy=0;endSize=8;endArrow=block;endFill=0;" edge="1" parent="WIyWlLk6GJQsqaUBKTNV-1" source="L2Q9ZGXkg7ZCrjdloAhY-12" target="L2Q9ZGXkg7ZCrjdloAhY-18">
          <mxGeometry relative="1" as="geometry">
            <mxPoint x="450" y="299" as="sourcePoint" />
            <mxPoint x="450" y="346" as="targetPoint" />
          </mxGeometry>
        </mxCell>
        <mxCell id="L2Q9ZGXkg7ZCrjdloAhY-22" value="" style="edgeStyle=orthogonalEdgeStyle;rounded=0;orthogonalLoop=1;jettySize=auto;html=1;exitX=0.5;exitY=1;exitDx=0;exitDy=0;entryX=0.5;entryY=0;entryDx=0;entryDy=0;endSize=8;endArrow=block;endFill=0;" edge="1" parent="WIyWlLk6GJQsqaUBKTNV-1" source="L2Q9ZGXkg7ZCrjdloAhY-12" target="L2Q9ZGXkg7ZCrjdloAhY-19">
          <mxGeometry relative="1" as="geometry">
            <mxPoint x="450" y="299" as="sourcePoint" />
            <mxPoint x="587" y="346" as="targetPoint" />
          </mxGeometry>
        </mxCell>
        <mxCell id="L2Q9ZGXkg7ZCrjdloAhY-23" value="DE Gene Lists" style="text;html=1;strokeColor=none;fillColor=none;align=center;verticalAlign=middle;whiteSpace=wrap;rounded=0;" vertex="1" parent="WIyWlLk6GJQsqaUBKTNV-1">
          <mxGeometry x="526.75" y="392" width="100.5" height="30" as="geometry" />
        </mxCell>
        <mxCell id="L2Q9ZGXkg7ZCrjdloAhY-24" value="" style="endArrow=classic;html=1;rounded=0;exitX=0.5;exitY=1;exitDx=0;exitDy=0;entryX=0.5;entryY=0;entryDx=0;entryDy=0;" edge="1" parent="WIyWlLk6GJQsqaUBKTNV-1" source="L2Q9ZGXkg7ZCrjdloAhY-18" target="L2Q9ZGXkg7ZCrjdloAhY-23">
          <mxGeometry width="50" height="50" relative="1" as="geometry">
            <mxPoint x="380" y="329" as="sourcePoint" />
            <mxPoint x="430" y="279" as="targetPoint" />
          </mxGeometry>
        </mxCell>
        <mxCell id="L2Q9ZGXkg7ZCrjdloAhY-25" value="clusterProfiler" style="rounded=1;whiteSpace=wrap;html=1;fontSize=12;glass=0;strokeWidth=1;shadow=0;" vertex="1" parent="WIyWlLk6GJQsqaUBKTNV-1">
          <mxGeometry x="590" y="469" width="120" height="40" as="geometry" />
        </mxCell>
        <mxCell id="L2Q9ZGXkg7ZCrjdloAhY-26" value="" style="endArrow=classic;html=1;rounded=0;exitX=0.5;exitY=1;exitDx=0;exitDy=0;entryX=0;entryY=0.5;entryDx=0;entryDy=0;edgeStyle=orthogonalEdgeStyle;" edge="1" parent="WIyWlLk6GJQsqaUBKTNV-1" source="L2Q9ZGXkg7ZCrjdloAhY-17" target="L2Q9ZGXkg7ZCrjdloAhY-23">
          <mxGeometry width="50" height="50" relative="1" as="geometry">
            <mxPoint x="587" y="386" as="sourcePoint" />
            <mxPoint x="587" y="402" as="targetPoint" />
          </mxGeometry>
        </mxCell>
        <mxCell id="L2Q9ZGXkg7ZCrjdloAhY-27" value="" style="endArrow=classic;html=1;rounded=0;exitX=0.5;exitY=1;exitDx=0;exitDy=0;entryX=1;entryY=0.5;entryDx=0;entryDy=0;edgeStyle=orthogonalEdgeStyle;" edge="1" parent="WIyWlLk6GJQsqaUBKTNV-1" source="L2Q9ZGXkg7ZCrjdloAhY-19" target="L2Q9ZGXkg7ZCrjdloAhY-23">
          <mxGeometry width="50" height="50" relative="1" as="geometry">
            <mxPoint x="450" y="386" as="sourcePoint" />
            <mxPoint x="537" y="417" as="targetPoint" />
          </mxGeometry>
        </mxCell>
        <mxCell id="L2Q9ZGXkg7ZCrjdloAhY-30" value="" style="edgeStyle=orthogonalEdgeStyle;rounded=0;orthogonalLoop=1;jettySize=auto;html=1;exitX=0.5;exitY=1;exitDx=0;exitDy=0;entryX=0.5;entryY=0;entryDx=0;entryDy=0;endSize=8;endArrow=block;endFill=0;" edge="1" parent="WIyWlLk6GJQsqaUBKTNV-1" source="L2Q9ZGXkg7ZCrjdloAhY-23" target="L2Q9ZGXkg7ZCrjdloAhY-25">
          <mxGeometry relative="1" as="geometry">
            <mxPoint x="450" y="299" as="sourcePoint" />
            <mxPoint x="720" y="346" as="targetPoint" />
          </mxGeometry>
        </mxCell>
        <mxCell id="L2Q9ZGXkg7ZCrjdloAhY-34" value="" style="edgeStyle=orthogonalEdgeStyle;rounded=0;orthogonalLoop=1;jettySize=auto;html=1;exitX=0.5;exitY=1;exitDx=0;exitDy=0;entryX=0.5;entryY=0;entryDx=0;entryDy=0;endSize=8;endArrow=block;endFill=0;" edge="1" parent="WIyWlLk6GJQsqaUBKTNV-1" source="L2Q9ZGXkg7ZCrjdloAhY-23" target="WIyWlLk6GJQsqaUBKTNV-11">
          <mxGeometry relative="1" as="geometry">
            <mxPoint x="587" y="432" as="sourcePoint" />
            <mxPoint x="660" y="479" as="targetPoint" />
          </mxGeometry>
        </mxCell>
        <mxCell id="L2Q9ZGXkg7ZCrjdloAhY-37" value="RNA Fastq Files" style="text;html=1;strokeColor=none;fillColor=none;align=center;verticalAlign=middle;whiteSpace=wrap;rounded=0;" vertex="1" parent="WIyWlLk6GJQsqaUBKTNV-1">
          <mxGeometry x="45" y="50" width="110" height="30" as="geometry" />
        </mxCell>
        <mxCell id="L2Q9ZGXkg7ZCrjdloAhY-38" value="" style="rounded=1;whiteSpace=wrap;html=1;fillColor=none;strokeWidth=2;strokeColor=#d70f0f;" vertex="1" parent="WIyWlLk6GJQsqaUBKTNV-1">
          <mxGeometry x="31" y="35" width="139" height="60" as="geometry" />
        </mxCell>
        <mxCell id="L2Q9ZGXkg7ZCrjdloAhY-39" value="" style="rounded=1;whiteSpace=wrap;html=1;fillColor=none;strokeWidth=2;strokeColor=#d70f0f;" vertex="1" parent="WIyWlLk6GJQsqaUBKTNV-1">
          <mxGeometry x="29" y="110" width="451" height="110" as="geometry" />
        </mxCell>
      </root>
    </mxGraphModel>
  </diagram>
</mxfile>
